<svg xmlns="http://www.w3.org/2000/svg" width="680" height="680" viewBox="0 0 680 680" version="1.1">
	<path d="M 283.282 35.962 C 261.721 39.757, 237.382 50.182, 217.823 64 C 207.879 71.025, 191.869 86.161, 185.032 95 C 182.692 98.025, 180.191 100.838, 179.474 101.252 C 178.698 101.700, 175.206 100.371, 170.835 97.963 C 157.537 90.637, 145.597 85.176, 139 83.401 C 129.241 80.776, 114.151 81.016, 106.718 83.914 C 77.812 95.183, 76.860 125.472, 104.250 162.427 C 106.862 165.951, 109 169.289, 109 169.844 C 109 170.399, 106.475 172.298, 103.390 174.063 C 76.031 189.716, 56.061 220.447, 47.425 260.187 C 45.317 269.883, 44.642 276.163, 44.249 289.733 C 43.266 323.608, 46.405 337.662, 72.785 417.500 C 80.963 442.250, 88.312 464.735, 89.116 467.467 C 90.248 471.312, 91.360 472.893, 94.039 474.467 C 97.333 476.402, 99.120 476.500, 131 476.500 L 164.500 476.500 169.317 473.668 L 174.135 470.837 186.317 474.849 C 205.708 481.235, 212.695 482.309, 235.500 482.411 C 255.005 482.498, 255.687 482.431, 263.062 479.717 C 267.221 478.186, 272.329 475.529, 274.412 473.812 L 278.200 470.690 277.528 464.414 C 276.791 457.539, 277.739 454.563, 280.932 453.728 C 284.186 452.877, 285.100 455.227, 284.789 463.650 L 284.500 471.500 291.177 473.732 C 300.713 476.920, 314.721 478.297, 332.902 477.834 C 348.566 477.436, 348.738 477.406, 355.593 473.966 L 362.500 470.500 363.679 458.436 C 365.397 440.859, 372.312 411.768, 377.807 398.998 L 379.742 394.500 380.871 398.750 C 381.492 401.087, 382.467 404.800, 383.039 407 C 384.733 413.527, 384.937 413.342, 396.251 395 C 400.152 388.675, 409.601 375.046, 417.249 364.714 C 437.679 337.112, 448.208 319.105, 457.659 295.599 C 470.585 263.451, 476.823 229.777, 477.230 189.946 C 477.356 177.712, 476.984 173.737, 474.803 163.987 C 466.803 128.225, 447.071 96.981, 417.096 72.613 C 394.471 54.220, 365.160 40.729, 337.581 36.014 C 322.234 33.390, 298.026 33.367, 283.282 35.962 M 295.500 50.627 C 262.453 54.229, 232.494 68.526, 208.886 91.963 C 199.344 101.436, 197.805 103.483, 193.644 112.229 C 189.808 120.295, 188.545 122.079, 186.258 122.665 C 179.872 124.302, 177.287 123.534, 168.297 117.327 C 150.052 104.733, 136.026 99.485, 122.501 100.195 C 112.821 100.703, 108.531 102.931, 104.945 109.312 C 101.951 114.639, 102.517 124.204, 106.312 132.422 C 110.673 141.865, 122.144 152.467, 134.919 158.863 C 145.707 164.263, 148.683 164.991, 149.652 162.465 C 151.781 156.917, 142.301 141.287, 127.979 126.732 C 122.490 121.155, 118 116.220, 118 115.765 C 118 113.684, 121.385 114.034, 125.738 116.563 C 136.800 122.992, 151.545 140.129, 159.290 155.560 C 163.046 163.043, 166.576 173.758, 165.605 174.729 C 164.828 175.505, 149.412 171.421, 139.682 167.861 C 126.081 162.884, 123.605 164.388, 128.825 174.456 C 132.691 181.911, 139.068 188.345, 149.455 195.268 C 160.897 202.895, 161.232 203.518, 162.138 218.866 C 163.744 246.051, 172.621 276.766, 185.731 300.500 C 190.336 308.834, 193.144 313.189, 193.613 312.720 C 193.801 312.532, 193.510 307.308, 192.966 301.112 C 192.014 290.256, 192.383 286.127, 194.039 289.122 C 194.458 289.880, 196.934 296.125, 199.542 303 C 202.150 309.875, 207.124 321.350, 210.596 328.500 C 216.960 341.605, 232.149 370.482, 233.266 371.599 C 234.267 372.600, 235.980 364.725, 236.803 355.342 L 237.578 346.500 242.168 355.500 C 247.924 366.790, 252.083 379.717, 255.637 397.368 C 257.466 406.449, 258.651 410.473, 259.122 409.200 C 259.514 408.140, 260.776 401.732, 261.926 394.961 C 263.076 388.190, 264.126 382.546, 264.258 382.420 C 264.391 382.293, 271.700 387.797, 280.500 394.650 C 300.750 410.421, 307.656 415.051, 309.817 414.307 C 312.278 413.459, 337.042 394.728, 343.482 388.842 C 350.217 382.687, 350.391 383.476, 345.500 398 C 343.575 403.716, 342 409.052, 342 409.856 C 342 410.661, 344.813 408.482, 348.250 405.012 C 351.688 401.543, 360.816 393.664, 368.535 387.503 C 376.254 381.342, 385.366 373.202, 388.785 369.414 C 392.593 365.195, 395 363.185, 395 364.225 C 395 365.159, 394.087 369.838, 392.971 374.624 C 391.855 379.410, 391.079 383.736, 391.246 384.237 C 391.412 384.737, 392.632 383.202, 393.956 380.824 C 395.280 378.446, 400.877 369.750, 406.393 361.500 C 437.710 314.664, 453.338 278.957, 460.447 238 C 462.592 225.646, 463.673 207, 462.245 207 C 461.665 207, 459.838 209.397, 458.184 212.327 C 450.166 226.536, 429.067 236.973, 408.321 236.993 C 400.301 237.001, 398.876 236.184, 397.003 230.509 C 396.366 228.579, 395.542 227.031, 395.172 227.068 C 394.803 227.106, 392.250 229.809, 389.500 233.076 C 383.082 240.700, 376.554 245.592, 370.717 247.153 C 366.766 248.210, 365.293 248.142, 360.691 246.692 C 352.961 244.255, 344.625 238.502, 335.961 229.625 L 328.422 221.900 316.924 227.783 C 303.258 234.775, 292.029 238.022, 279.039 238.738 C 261.934 239.680, 245.636 236.154, 233.199 228.821 C 225.549 224.310, 214.181 212.851, 209.598 205.032 C 204.254 195.913, 200.158 182.984, 199.421 172.906 C 198.881 165.524, 199.133 163.465, 201.491 156 C 213.988 116.440, 246.878 93.489, 288.500 95.284 C 304.555 95.977, 315.418 98.931, 336.680 108.387 C 358.193 117.954, 360.314 118.130, 375.359 111.596 C 389.494 105.457, 401.895 102.493, 408.311 103.719 C 410.734 104.182, 411 104.659, 411 108.544 C 411 114.197, 413.453 116.119, 424.243 118.923 C 428.784 120.103, 435.538 122.151, 439.250 123.474 C 442.962 124.797, 446 125.494, 446 125.022 C 446 123.150, 441.807 114.548, 438.371 109.371 C 436.067 105.900, 432.496 102.380, 428.618 99.757 C 425.253 97.481, 419.800 93.376, 416.500 90.635 C 394.915 72.708, 365.823 58.578, 338.867 52.929 C 329.658 50.999, 304.393 49.658, 295.500 50.627 M 271.306 117.505 C 261.482 119.641, 249.332 125.868, 242.320 132.362 C 231.274 142.592, 227.526 152.002, 228.165 167.899 C 228.511 176.504, 228.944 178.350, 232.261 185.333 C 244.191 210.456, 277.208 221.146, 303.826 208.505 C 313.020 204.139, 323.226 194.226, 327.339 185.668 C 341.075 157.088, 327.181 123.583, 298.888 117.061 C 292.821 115.662, 278.743 115.889, 271.306 117.505 M 268.667 129.449 C 266.010 130.155, 262.635 131.623, 261.167 132.711 C 250.195 140.847, 246.699 161.822, 253.885 176.417 C 263.115 195.166, 283.074 198.722, 296.328 183.980 C 315.602 162.543, 295.235 122.392, 268.667 129.449 M 430 129.588 C 430 129.911, 431.535 132.948, 433.412 136.338 C 437.905 144.455, 440.807 154.242, 441.624 164.041 L 442.288 172 445.243 172 C 449.019 172, 453.689 167.172, 454.598 162.329 C 457.119 148.893, 450.302 135.367, 438.532 130.449 C 435.056 128.996, 430 128.486, 430 129.588 M 391.817 136.713 C 386.212 143.134, 385.742 155.756, 390.874 162.092 L 392.721 164.374 393.807 160.937 C 397.305 149.862, 397.924 135.788, 394.938 135.222 C 394.080 135.059, 392.675 135.730, 391.817 136.713 M 413.500 137.155 C 410.272 138.921, 409 141.142, 409 145.017 C 409 151.086, 414.694 154.916, 420.747 152.919 C 427.153 150.804, 428.255 143.076, 422.805 138.489 C 419.634 135.821, 416.706 135.401, 413.500 137.155 M 272.255 138.097 C 268.502 139.204, 266.146 142.328, 265.346 147.257 C 264.877 150.144, 265.290 151.293, 267.810 154.113 C 270.461 157.079, 271.411 157.488, 275.454 157.403 C 279.104 157.327, 280.710 156.699, 283.125 154.403 C 285.838 151.825, 286.126 151.011, 285.700 147.132 C 284.894 139.805, 279.272 136.028, 272.255 138.097 M 378.500 167.532 C 374.276 168.451, 371.044 168.564, 367.583 167.913 C 363.654 167.174, 362.185 167.304, 360.272 168.557 C 356.942 170.739, 357.743 172.925, 362.999 175.999 C 365.472 177.446, 368.172 179.861, 368.998 181.365 C 370.450 184.010, 370.382 184.207, 366.943 187.301 C 364.987 189.060, 362.112 191.411, 360.555 192.525 C 358.387 194.075, 357.881 195.050, 358.399 196.683 C 359.522 200.221, 362.036 200.315, 368.361 197.053 C 371.617 195.374, 375.062 194, 376.016 194 C 376.970 194, 380.348 195.149, 383.523 196.553 C 387.290 198.218, 389.635 198.765, 390.274 198.126 C 392.075 196.325, 390.071 192.299, 385.514 188.565 C 379.008 183.234, 379.287 180.311, 386.750 175.637 C 391.203 172.848, 391.824 171.431, 389.750 168.792 C 387.869 166.399, 385.122 166.091, 378.500 167.532 M 107.587 188.608 C 79.437 205.086, 60.121 244.836, 58.317 290 C 57.096 320.565, 64.380 351.087, 86.717 409 C 91.914 422.475, 97.565 437.271, 99.275 441.881 C 101.912 448.992, 102.846 450.452, 105.441 451.518 C 111.220 453.891, 123.520 455.429, 137 455.464 C 148.168 455.494, 151.141 455.181, 154.213 453.654 C 159.662 450.944, 159.755 449.114, 154.894 440.308 C 152.560 436.080, 148.266 426.294, 145.350 418.561 C 139.520 403.099, 141.011 405.052, 122.180 388.192 C 96.821 365.486, 74.535 321.451, 75.903 296.750 C 76.143 292.417, 78.690 296.463, 88.806 317.250 C 107.560 355.786, 119.784 372.541, 140 387.423 C 147.837 393.192, 154.909 397.424, 155.584 396.749 C 155.856 396.478, 155.160 392.945, 154.039 388.898 C 151.837 380.952, 151.267 369, 153.090 369 C 155.094 369, 158.101 373.418, 162.961 383.500 C 171.208 400.612, 176.138 420.322, 177.333 440.969 C 177.921 451.123, 178.182 451.416, 190.739 456.004 C 205.322 461.332, 221.298 465, 229.925 465 C 238.763 465, 246.843 462.936, 249.500 460 C 251.278 458.035, 251.242 457.697, 248.183 447.740 C 246.453 442.108, 244.122 431.708, 243.003 424.630 C 240.119 406.391, 236.174 395.381, 226.717 379.176 C 215.706 360.309, 208.674 350.280, 197.803 337.941 C 181.230 319.129, 175.019 309.775, 166.117 290.217 C 157.771 271.880, 152.618 255.167, 150.050 238.103 C 149.437 234.035, 148.676 230.285, 148.358 229.771 C 148.041 229.257, 146.480 230.082, 144.890 231.605 L 142 234.374 142 230.252 C 142 227.986, 142.694 222.839, 143.542 218.815 C 144.390 214.792, 144.835 210.501, 144.531 209.281 C 144.223 208.046, 140.649 204.600, 136.473 201.512 C 132.346 198.460, 126.879 193.271, 124.324 189.981 C 121.255 186.030, 118.963 184, 117.569 184 C 116.408 184, 111.916 186.073, 107.587 188.608 M 442.214 206.386 C 431.978 212.974, 429 215.717, 429 218.553 C 429 221.265, 433.786 223.522, 437.540 222.579 C 443.163 221.168, 451.012 211.648, 453.475 203.250 C 454.545 199.600, 451.389 200.479, 442.214 206.386 M 245 249.592 C 232.421 251.417, 220.705 255.252, 214.250 259.659 C 209.391 262.976, 207.737 265, 209.885 265 C 210.371 265, 216.831 263.005, 224.240 260.568 C 231.649 258.130, 243.288 254.979, 250.105 253.565 C 267.402 249.979, 267.149 250.050, 266.482 248.971 C 265.670 247.657, 256.519 247.922, 245 249.592 M 263.843 258.916 C 253.483 261.712, 244.119 265.775, 236.741 270.676 C 230.463 274.846, 227.116 278.449, 228.362 279.695 C 229.163 280.497, 274.299 259.603, 274.761 258.216 C 275.321 256.538, 271.827 256.762, 263.843 258.916 M 159.412 304.497 C 157.932 306.758, 157.534 309.031, 157.651 314.550 C 158.069 334.250, 169.848 359.311, 187 376.994 C 193.888 384.096, 196.973 386.459, 203.267 389.457 C 207.538 391.491, 211.563 392.979, 212.211 392.763 C 212.859 392.547, 209.584 388.125, 204.934 382.935 C 193.020 369.639, 188.907 364.505, 183.756 356.500 C 174.776 342.544, 168.235 327.480, 163.581 310.038 L 161.324 301.576 159.412 304.497 M 355.500 410.227 C 349.954 416.780, 337.390 429, 336.200 429 C 335.780 429, 333.876 425.868, 331.968 422.040 L 328.500 415.080 323.359 419.290 C 320.532 421.605, 316.032 425.075, 313.359 427 C 307.745 431.044, 304.411 436.970, 303.428 444.651 C 302.639 450.812, 302.990 451.132, 316.640 456.700 C 327.338 461.064, 333.893 461.392, 341.866 457.962 C 347.676 455.463, 349.065 453.483, 350.960 445 C 351.636 441.975, 354.207 432.201, 356.673 423.280 C 359.140 414.359, 361.010 406.443, 360.829 405.690 C 360.636 404.888, 358.426 406.770, 355.500 410.227" stroke="none" fill="black" fill-rule="evenodd"/>
</svg>